<svg xmlns="http://www.w3.org/2000/svg" xmlns:xlink="http://www.w3.org/1999/xlink" width="93" height="61" viewBox="0 0 93 61">
  <metadata><?xpacket begin="﻿" id="W5M0MpCehiHzreSzNTczkc9d"?>
<x:xmpmeta xmlns:x="adobe:ns:meta/" x:xmptk="Adobe XMP Core 5.6-c142 79.160924, 2017/07/13-01:06:39        ">
   <rdf:RDF xmlns:rdf="http://www.w3.org/1999/02/22-rdf-syntax-ns#">
      <rdf:Description rdf:about=""/>
   </rdf:RDF>
</x:xmpmeta>
                                                                                                    
                                                                                                    
                                                                                                    
                                                                                                    
                                                                                                    
                                                                                                    
                                                                                                    
                                                                                                    
                                                                                                    
                                                                                                    
                                                                                                    
                                                                                                    
                                                                                                    
                                                                                                    
                                                                                                    
                                                                                                    
                                                                                                    
                                                                                                    
                                                                                                    
                                                                                                    
                           
<?xpacket end="w"?></metadata>
<defs>
    <style>
      .cls-1 {
        fill-rule: evenodd;
        filter: url(#filter);
      }
    </style>
    <filter id="filter" x="235" y="958" width="93" height="61" filterUnits="userSpaceOnUse">
      <feFlood result="flood" flood-color="#008dd2"/>
      <feComposite result="composite" operator="in" in2="SourceGraphic"/>
      <feBlend result="blend" in2="SourceGraphic"/>
    </filter>
  </defs>
  <path id="Forma_1" data-name="Forma 1" class="cls-1" d="M328,989.42c0-.017,0-0.035,0-0.052a2.133,2.133,0,0,0-2.141-2.1h-0.562l-8.682-16.843a2.132,2.132,0,0,0-1.9-1.155l-14.823,0,0.566-4.5a6.193,6.193,0,0,0-1.56-4.779A6.1,6.1,0,0,0,294.311,958h-46a2.276,2.276,0,0,0-2.25,2.056l-0.461,3.706h26.211a2.992,2.992,0,0,1,3,3.092,3.187,3.187,0,0,1-3.163,3.092H262.9s0,0.009,0,.013H237.234A2.254,2.254,0,0,0,235,972.146a2.116,2.116,0,0,0,2.122,2.187h33.989a3.2,3.2,0,0,1,2.713,3.27,3.412,3.412,0,0,1-3.36,3.312H247.029a2.276,2.276,0,0,0-2.259,2.209,2.137,2.137,0,0,0,2.144,2.209h23.157a3.2,3.2,0,0,1,2.759,3.278,3.415,3.415,0,0,1-3.388,3.313H242.876v0h-2.232a2.276,2.276,0,0,0-2.259,2.209,2.136,2.136,0,0,0,2.143,2.209h1.927l-0.754,7.906a6.185,6.185,0,0,0,1.56,4.78,6.076,6.076,0,0,0,4.581,1.99H249.5a9.609,9.609,0,0,0,9.5,7.98,10.254,10.254,0,0,0,9.918-7.98h20.739a7.023,7.023,0,0,0,4.509-1.69,6.141,6.141,0,0,0,4.3,1.69h0.341a9.609,9.609,0,0,0,9.5,7.98,10.256,10.256,0,0,0,9.919-7.98H319.6a7.241,7.241,0,0,0,7.05-6.48l1.341-14.913c0-.02,0-0.04,0-0.06s0.007-.061.008-0.092S328,989.439,328,989.42Zm-68.877,25.16a5.344,5.344,0,0,1-5.359-5.52,5.7,5.7,0,0,1,5.647-5.52,5.349,5.349,0,0,1,5.359,5.52A5.69,5.69,0,0,1,259.121,1014.58Zm49.306,0a5.344,5.344,0,0,1-5.359-5.52,5.7,5.7,0,0,1,5.647-5.52,5.35,5.35,0,0,1,5.359,5.52A5.692,5.692,0,0,1,308.427,1014.58Zm13.836-10.33a2.649,2.649,0,0,1-2.549,2.35h-1.48a9.615,9.615,0,0,0-9.4-7.479,10.264,10.264,0,0,0-9.794,7.479h-0.453a1.872,1.872,0,0,1-1.406-.59,1.9,1.9,0,0,1-.464-1.47l2.776-30.857h6.374l-1.01,11.232a6.183,6.183,0,0,0,1.559,4.779,6.1,6.1,0,0,0,4.581,1.989h12.4Z" transform="translate(-235 -958)"/>
</svg>
