<svg xmlns="http://www.w3.org/2000/svg" xmlns:xlink="http://www.w3.org/1999/xlink" width="73" height="75" viewBox="0 0 73 75">
  <metadata><?xpacket begin="﻿" id="W5M0MpCehiHzreSzNTczkc9d"?>
<x:xmpmeta xmlns:x="adobe:ns:meta/" x:xmptk="Adobe XMP Core 5.6-c142 79.160924, 2017/07/13-01:06:39        ">
   <rdf:RDF xmlns:rdf="http://www.w3.org/1999/02/22-rdf-syntax-ns#">
      <rdf:Description rdf:about=""/>
   </rdf:RDF>
</x:xmpmeta>
                                                                                                    
                                                                                                    
                                                                                                    
                                                                                                    
                                                                                                    
                                                                                                    
                                                                                                    
                                                                                                    
                                                                                                    
                                                                                                    
                                                                                                    
                                                                                                    
                                                                                                    
                                                                                                    
                                                                                                    
                                                                                                    
                                                                                                    
                                                                                                    
                                                                                                    
                                                                                                    
                           
<?xpacket end="w"?></metadata>
<defs>
    <style>
      .cls-1 {
        fill-rule: evenodd;
        filter: url(#filter);
      }
    </style>
    <filter id="filter" x="956" y="953" width="73" height="75" filterUnits="userSpaceOnUse">
      <feFlood result="flood" flood-color="#008dd2"/>
      <feComposite result="composite" operator="in" in2="SourceGraphic"/>
      <feBlend result="blend" in2="SourceGraphic"/>
    </filter>
  </defs>
  <path class="cls-1" d="M1014.19,972.33a1,1,0,0,0,.42-1.918l-38.551-17.007a4.663,4.663,0,0,0-6.154,2.349l-13.5,30.114a4.622,4.622,0,0,0,2.361,6.124l7.774,3.346A1.48,1.48,0,0,0,968.624,994V981.217a8.9,8.9,0,0,1,8.916-8.871h36.65V972.33h0Zm10.09,4.175H977.525a4.708,4.708,0,0,0-4.72,4.7v32.858a4.707,4.707,0,0,0,4.72,4.7H983.8a17.021,17.021,0,0,1-.231-2.81,17.789,17.789,0,0,1,.293-3.15h-5.06V997.072h44.205v15.718h-5.07a18.178,18.178,0,0,1,.29,3.15,16.279,16.279,0,0,1-.23,2.8h6.28a4.7,4.7,0,0,0,4.72-4.69V981.2A4.707,4.707,0,0,0,1024.28,976.505Zm-1.27,10.882H978.805V982.46h44.205v4.927Zm-22.1,16.483a12.065,12.065,0,1,0,12.12,12.07A12.1,12.1,0,0,0,1000.91,1003.87Zm3.49,16.82a3.807,3.807,0,0,1-2.02,1.29,0.575,0.575,0,0,0-.5.65c0.02,0.35,0,.7,0,1.07a0.436,0.436,0,0,1-.48.49,11.028,11.028,0,0,1-1.15,0,0.456,0.456,0,0,1-.5-0.52v-0.78c0-.57-0.031-0.6-0.586-0.69a7.3,7.3,0,0,1-2.052-.59c-0.509-.24-0.57-0.36-0.416-0.9,0.108-.4.216-0.8,0.339-1.18,0.139-.46.262-0.51,0.694-0.29a6.768,6.768,0,0,0,2.288.67,2.741,2.741,0,0,0,1.49-.2,1.141,1.141,0,0,0,.28-2.02,3.169,3.169,0,0,0-.85-0.5,15.951,15.951,0,0,1-2.328-1.04,3.266,3.266,0,0,1-1.867-3.15,3.451,3.451,0,0,1,2.545-3.2c0.617-.23.633-0.22,0.633-0.86v-0.66c0.015-.49.1-0.57,0.587-0.59h0.45c1.05,0,1.05,0,1.05,1.05,0,0.73,0,.73.74,0.84a6.827,6.827,0,0,1,1.62.48,0.455,0.455,0,0,1,.3.63c-0.12.44-.24,0.9-0.4,1.33-0.14.42-.27,0.48-0.68,0.29a5.028,5.028,0,0,0-2.56-.5,1.8,1.8,0,0,0-.68.14,0.959,0.959,0,0,0-.24,1.71,4.679,4.679,0,0,0,1.11.63,19.438,19.438,0,0,1,2.03.92A3.6,3.6,0,0,1,1004.4,1020.69Z" transform="translate(-956 -953)"/>
</svg>
