<svg xmlns="http://www.w3.org/2000/svg" xmlns:xlink="http://www.w3.org/1999/xlink" width="69" height="66" viewBox="0 0 69 66">
  <metadata><?xpacket begin="﻿" id="W5M0MpCehiHzreSzNTczkc9d"?>
<x:xmpmeta xmlns:x="adobe:ns:meta/" x:xmptk="Adobe XMP Core 5.6-c142 79.160924, 2017/07/13-01:06:39        ">
   <rdf:RDF xmlns:rdf="http://www.w3.org/1999/02/22-rdf-syntax-ns#">
      <rdf:Description rdf:about=""/>
   </rdf:RDF>
</x:xmpmeta>
                                                                                                    
                                                                                                    
                                                                                                    
                                                                                                    
                                                                                                    
                                                                                                    
                                                                                                    
                                                                                                    
                                                                                                    
                                                                                                    
                                                                                                    
                                                                                                    
                                                                                                    
                                                                                                    
                                                                                                    
                                                                                                    
                                                                                                    
                                                                                                    
                                                                                                    
                                                                                                    
                           
<?xpacket end="w"?></metadata>
<defs>
    <style>
      .cls-1 {
        fill-rule: evenodd;
        filter: url(#filter);
      }
    </style>
    <filter id="filter" x="494" y="950" width="69" height="66" filterUnits="userSpaceOnUse">
      <feFlood result="flood" flood-color="#008dd2"/>
      <feComposite result="composite" operator="in" in2="SourceGraphic"/>
      <feBlend result="blend" in2="SourceGraphic"/>
    </filter>
  </defs>
  <path id="Forma_1" data-name="Forma 1" class="cls-1" d="M510.277,974.444H498.845c-2.347,0-4.839,2.762-4.839,5.459v31.077a5.21,5.21,0,0,0,4.839,5.01h11.432c2.35,0,4.077-2.32,4.077-5.01V979.9C514.354,977.206,512.627,974.444,510.277,974.444ZM560.949,985.9a6.437,6.437,0,0,0,2.041-4.7,6.731,6.731,0,0,0-1.914-4.718,6.663,6.663,0,0,0-4.615-2.033H541.368c4.218-13.057-3.276-21.6-3.616-21.985-0.007-.007-0.014.055-0.022,0.047a6.55,6.55,0,0,0-11.7,4c0,0.216.012,0.44,0.033,0.657a1.784,1.784,0,0,0,.007.724c1.248,5.673-1.352,12.12-3.014,15.458-0.143.288-.283,0.429-0.417,0.684a1.224,1.224,0,0,1-.973.418h-0.493c-0.091,0-.44.144-0.531,0.155a5.413,5.413,0,0,0-5.094,5.178v31.033c0,2.79,2.813,5.18,5.625,5.18h35.28a1.648,1.648,0,0,0,.437-0.12,104.756,104.756,0,0,1,6.1-15.873,6.44,6.44,0,0,1,0-9.4A6.438,6.438,0,0,0,560.949,985.9Z" transform="translate(-494 -950)"/>
</svg>
