<?xml version="1.0" encoding="iso-8859-1"?>
<!-- Generator: Adobe Illustrator 19.0.0, SVG Export Plug-In . SVG Version: 6.00 Build 0)  -->
<svg xmlns="http://www.w3.org/2000/svg" xmlns:xlink="http://www.w3.org/1999/xlink" version="1.1" id="Capa_1" x="0px" y="0px" viewBox="0 0 512 512" style="enable-background:new 0 0 512 512;" xml:space="preserve" width="512px" height="512px">
<g>
	<g>
		<path d="M60,242v255c0,8.284,6.716,15,15,15h31c24.853,0,45-20.147,45-45V242H60z" fill="#217dab"/>
	</g>
</g>
<g>
	<g>
		<path d="M331,0c-8.291,0-15,6.709-15,15v32c0,8.291,6.709,15,15,15c8.291,0,15-6.709,15-15V15C346,6.709,339.291,0,331,0z" fill="#217dab"/>
	</g>
</g>
<g>
	<g>
		<path d="M246.142,75.931L224.931,54.72c-5.859-5.859-15.352-5.859-21.211,0c-5.859,5.859-5.859,15.352,0,21.211l21.211,21.211    c5.859,5.859,15.351,5.859,21.211,0C252.001,91.283,252.001,81.79,246.142,75.931z" fill="#217dab"/>
	</g>
</g>
<g>
	<g>
		<path d="M196,167h-30c-8.291,0-15,6.709-15,15s6.709,15,15,15h30c8.291,0,15-6.709,15-15S204.291,167,196,167z" fill="#217dab"/>
	</g>
</g>
<g>
	<g>
		<path d="M497,167h-31c-8.291,0-15,6.709-15,15s6.709,15,15,15h31c8.291,0,15-6.709,15-15S505.291,167,497,167z" fill="#217dab"/>
	</g>
</g>
<g>
	<g>
		<path d="M458.28,54.72c-5.859-5.859-15.352-5.859-21.211,0l-21.211,21.211c-5.859,5.859-5.859,15.352,0,21.211    c5.859,5.859,15.352,5.859,21.211,0l21.211-21.211C464.14,70.071,464.14,60.579,458.28,54.72z" fill="#217dab"/>
	</g>
</g>
<g>
	<g>
		<path d="M458.5,317c-104.399,0-64.744,0-82.5,0c-8.284,0-15-6.716-15-15c0-8.286,6.716-15,15-15c17.719,0-21.061,0,82.5,0    c12.426,0,23.5-10.074,23.5-22.5c0-12.427-11.074-22.5-23.5-22.5h-111l7.5-20.101c6.3-17.099,11.7-40.199,15.901-66.299    c3.9-26.1-11.4-51.301-36-60.3c-4.2-1.5-9-0.901-12.9,1.199c-3.9,2.401-6.601,6.601-7.2,11.1    C310.3,144.5,290.8,194.299,262.599,208.4c-22.388,11.406-60.61,23.278-81.599,29.383v247.989l90,22.628l15,3.6h112.5    c12.299,0,22.5-10.201,22.5-22.5c0-12.301-10.201-22.5-22.5-22.5c-20.361,0-1.615,0-22.5,0c-8.284,0-15-6.716-15-15    c0-8.286,6.716-15,15-15c22.464,0,27.503,0,52.5,0c12.426,0,22.5-10.074,22.5-22.5c0-12.427-10.074-22.5-22.5-22.5    c-21.332,0-27.611,0-52.5,0c-8.284,0-15-6.716-15-15c0-8.286,6.716-15,15-15c17.719,0-21.061,0,82.5,0    c12.426,0,23.5-10.074,23.5-22.5C482,327.073,470.926,317,458.5,317z" fill="#217dab"/>
	</g>
</g>
<g>
	<g>
		<path d="M15,242c-8.291,0-15,6.709-15,15v210c0,8.291,6.709,15,15,15h15V242H15z" fill="#217dab"/>
	</g>
</g>
<g>
</g>
<g>
</g>
<g>
</g>
<g>
</g>
<g>
</g>
<g>
</g>
<g>
</g>
<g>
</g>
<g>
</g>
<g>
</g>
<g>
</g>
<g>
</g>
<g>
</g>
<g>
</g>
<g>
</g>
</svg>
