<?xml version="1.0" encoding="UTF-8"?>
<!DOCTYPE svg PUBLIC "-//W3C//DTD SVG 1.1//EN" "http://www.w3.org/Graphics/SVG/1.1/DTD/svg11.dtd">
<!-- Creator: CorelDRAW X7 -->
<svg xmlns="http://www.w3.org/2000/svg" xml:space="preserve" width="100mm" height="100mm" version="1.1" style="shape-rendering:geometricPrecision; text-rendering:geometricPrecision; image-rendering:optimizeQuality; fill-rule:evenodd; clip-rule:evenodd"
viewBox="0 0 10000 10000"
 xmlns:xlink="http://www.w3.org/1999/xlink">
 <defs>
  <style type="text/css">
   <![CDATA[
    .str0 {stroke:#2B2A29;stroke-width:20}
    .fil2 {fill:none}
    .fil1 {fill:#434242}
    .fil3 {fill:#008DD2}
    .fil0 {fill:#F5FBFD}
   ]]>
  </style>
 </defs>
 <g id="Слой_x0020_1">
  <metadata id="CorelCorpID_0Corel-Layer"/>
  <path class="fil0" d="M5152 4958c278,-665 -248,-501 -596,-478 -1343,-1489 446,-2635 1020,-1589 370,676 -183,447 -189,1200 577,-70 325,-103 715,-443 602,-45 711,3 1116,405 176,1262 -620,951 -1298,1112 -36,663 467,93 692,792 159,498 -105,758 -503,983 -1213,66 -789,-593 -1156,-1037 -632,307 84,932 -1139,1063 -458,-167 -733,-369 -646,-909 121,-747 444,-323 749,-825 -354,-451 -922,344 -1310,-529 -436,-978 629,-732 579,-1485 -557,46 -1003,416 -1075,985 -111,884 327,958 768,1356 -595,1525 642,2290 2033,1414 552,312 932,675 1681,224 589,-356 567,-1040 341,-1638 500,-488 872,-581 724,-1463 -127,-762 -783,-892 -1447,-869 -247,-432 -356,-959 -986,-1124 -2349,-617 -1626,3731 -73,2855z"/>
  <path class="fil1" d="M9589 5080c0,-2485 -2015,-4500 -4500,-4500 -2486,0 -4500,2015 -4500,4500 0,2485 2014,4500 4500,4500 2485,0 4500,-2015 4500,-4500z"/>
 </g>
 <g id="Слой_x0020_1_0">
  <metadata id="CorelCorpID_1Corel-Layer"/>
  <circle class="fil2 str0" cx="4869" cy="4870" r="4500"/>
  <path class="fil3" d="M9349 4870c0,-2485 -2015,-4500 -4500,-4500 -2486,0 -4500,2015 -4500,4500 0,2485 2014,4500 4500,4500 2485,0 4500,-2015 4500,-4500z"/>
  <path class="fil1" d="M5316 5216c286,-685 -256,-516 -614,-492 -1383,-1533 459,-2713 1050,-1636 381,696 -188,460 -195,1235 595,-72 335,-106 737,-456 619,-46 732,3 1149,417 181,1299 -639,979 -1337,1145 -37,683 481,96 713,815 163,513 -108,781 -518,1012 -1249,68 -812,-610 -1190,-1067 -651,316 86,959 -1173,1094 -472,-172 -755,-380 -665,-936 124,-769 457,-332 771,-849 -364,-464 -949,354 -1349,-545 -449,-1007 648,-753 596,-1529 -573,48 -1032,429 -1106,1015 -115,910 336,986 790,1396 -612,1570 661,2357 2093,1455 569,322 960,695 1731,231 607,-366 584,-1071 351,-1686 515,-503 898,-599 746,-1507 -131,-784 -806,-918 -1490,-894 -254,-445 -367,-988 -1015,-1158 -2419,-635 -1674,3842 -75,2940z"/>
  <path class="fil0" d="M5147 4942c278,-665 -248,-501 -596,-478 -1343,-1489 446,-2635 1020,-1589 370,676 -183,447 -189,1200 577,-70 325,-103 715,-443 602,-45 711,3 1116,405 176,1262 -620,951 -1298,1112 -36,663 467,93 692,792 159,498 -105,758 -503,983 -1213,66 -789,-593 -1156,-1037 -632,307 84,932 -1139,1063 -458,-167 -733,-369 -646,-909 121,-747 444,-323 749,-825 -354,-451 -922,344 -1310,-529 -436,-978 629,-732 579,-1485 -557,46 -1003,416 -1075,985 -111,884 327,958 768,1356 -595,1525 642,2290 2033,1414 552,312 932,675 1681,224 589,-356 567,-1040 341,-1638 500,-488 872,-581 724,-1463 -127,-762 -783,-892 -1447,-869 -247,-432 -356,-959 -986,-1124 -2349,-617 -1626,3731 -73,2855z"/>
 </g>
</svg>
