<?xml version="1.0" encoding="UTF-8"?>
<!DOCTYPE svg PUBLIC "-//W3C//DTD SVG 1.1//EN" "http://www.w3.org/Graphics/SVG/1.1/DTD/svg11.dtd">
<!-- Creator: CorelDRAW X7 -->
<svg xmlns="http://www.w3.org/2000/svg" xml:space="preserve" width="85mm" height="25mm" version="1.1" style="shape-rendering:geometricPrecision; text-rendering:geometricPrecision; image-rendering:optimizeQuality; fill-rule:evenodd; clip-rule:evenodd"
viewBox="0 0 8500 2500"
 xmlns:xlink="http://www.w3.org/1999/xlink">
 <defs>
  <style type="text/css">
   <![CDATA[
    .str0 {stroke:#2B2A29;stroke-width:20}
    .fil3 {fill:none}
    .fil0 {fill:#003769}
    .fil4 {fill:#008DD2}
    .fil5 {fill:#268FC3}
    .fil2 {fill:#434242}
    .fil1 {fill:#F5FBFD}
   ]]>
  </style>
 </defs>
 <g id="Слой_x0020_1">
  <metadata id="CorelCorpID_0Corel-Layer"/>
  <g id="_286878152">
   <path class="fil0" d="M123 659l35 276 205 19 4 558 326 -5c24,-95 -26,-441 -29,-553l200 -10 19 -311 -760 26z"/>
   <path class="fil0" d="M2642 1342c42,-112 146,-98 165,18 -72,52 -113,54 -165,-18zm-265 -205c276,51 254,-121 382,-34 -36,53 -653,162 -343,389 108,79 257,40 371,22 91,-14 172,65 314,-32 25,-225 46,-495 -207,-563 -175,-47 -516,-23 -517,217l0 1z"/>
   <path class="fil0" d="M1150 1342c42,-112 146,-98 165,18 -72,52 -113,54 -165,-18zm-264 -202c85,10 157,17 221,-14 62,-30 42,-104 161,-22 -97,152 -413,-14 -406,303 58,208 447,104 447,104 83,-6 -19,-2 72,14 82,15 145,-13 234,-13 0,-230 58,-508 -194,-588 -180,-56 -536,-34 -535,216z"/>
   <path class="fil0" d="M1719 1115l232 9 -266 371c84,50 512,74 608,60l6 -255 -236 8 234 -373c-138,-19 -252,-14 -395,-31 -197,-25 -208,31 -183,211l0 0z"/>
  </g>
  <g id="_297095680">
   <path class="fil1" d="M4204 1158c57,-136 -51,-103 -122,-98 -276,-305 91,-541 208,-326 76,139 -38,92 -39,246 119,-14 67,-21 147,-91 123,-9 146,1 229,83 36,258 -127,194 -267,227 -7,136 96,19 142,163 33,102 -21,155 -103,201 -249,14 -162,-121 -237,-212 -129,63 17,191 -233,218 -94,-35 -150,-76 -132,-187 25,-153 91,-66 153,-169 -73,-92 -188,71 -268,-108 -89,-200 128,-150 119,-304 -114,9 -206,85 -221,201 -22,181 67,197 158,278 -122,313 131,470 416,290 113,64 191,139 345,46 120,-73 116,-213 69,-336 103,-100 179,-119 149,-300 -26,-155 -161,-182 -297,-177 -50,-89 -73,-197 -202,-231 -481,-126 -333,765 -15,585l1 1z"/>
   <path class="fil2" d="M5113 1183c0,-510 -413,-923 -922,-923 -510,0 -923,413 -923,923 0,509 413,922 923,922 509,0 922,-413 922,-922z"/>
  </g>
  <g id="_297099328">
   <circle class="fil3 str0" cx="4134" cy="1126" r="912"/>
   <path class="fil4" d="M5041 1126c0,-504 -408,-913 -911,-913 -504,0 -913,409 -913,913 0,503 409,911 913,911 503,0 911,-408 911,-911z"/>
   <path class="fil2" d="M4224 1196c58,-139 -51,-105 -124,-100 -280,-311 93,-550 212,-331 77,141 -38,93 -40,250 121,-15 68,-22 150,-92 125,-10 148,0 233,84 36,262 -130,198 -271,231 -8,139 97,20 144,165 33,104 -22,159 -105,206 -253,13 -164,-124 -241,-217 -132,64 17,195 -238,222 -96,-35 -152,-77 -134,-190 25,-156 93,-67 156,-172 -74,-94 -192,72 -273,-110 -91,-203 130,-152 121,-309 -116,9 -209,87 -224,204 -24,185 68,200 160,284 -124,318 133,477 423,295 116,65 195,140 351,46 123,-74 119,-217 71,-341 105,-102 182,-122 152,-306 -27,-158 -164,-185 -303,-180 -51,-91 -74,-201 -205,-235 -490,-129 -340,778 -16,595l1 1z"/>
   <path class="fil1" d="M4190 1140c57,-134 -50,-101 -121,-96 -272,-302 91,-535 206,-323 75,137 -37,91 -38,244 117,-15 66,-21 145,-90 122,-9 144,0 226,82 36,255 -126,192 -263,224 -7,135 95,19 140,161 32,101 -21,154 -102,199 -246,14 -160,-120 -234,-210 -128,62 17,189 -231,216 -93,-34 -148,-75 -130,-185 24,-151 90,-65 151,-167 -72,-91 -186,70 -265,-107 -88,-198 127,-148 118,-300 -113,9 -204,84 -218,198 -23,180 66,195 155,275 -120,310 130,465 412,287 111,63 189,137 340,45 120,-72 115,-210 70,-332 101,-99 176,-117 146,-296 -25,-154 -158,-180 -293,-175 -50,-88 -72,-195 -200,-228 -475,-125 -330,755 -15,577l1 1z"/>
  </g>
  <g id="_297093592">
   <path class="fil5" d="M5581 1122c-136,-4 -85,12 -75,-112 8,-88 9,-154 9,-244l-309 0 0 821 283 -28 16 -262 63 0 22 254 278 7 -24 -814c-353,0 -263,0 -263,378l0 0z"/>
   <path class="fil5" d="M6729 1055l18 510 243 0 22 -317 54 1 22 313 243 -1 72 -304 14 305 260 3c0,-289 58,-636 -320,-477 -132,55 -81,-119 -286,-19 -143,70 49,-14 -342,-14z"/>
   <path class="fil5" d="M6175 1297c73,-97 174,-97 247,0 -43,141 -175,131 -247,0zm46 -264c-523,160 -194,620 164,543 454,-97 246,-669 -164,-543z"/>
   <path class="fil5" d="M7990 1218c58,-43 88,-43 147,-15 -53,42 -87,43 -147,15zm433 131c-77,-9 -186,-15 -243,13 -65,31 -75,114 -191,-4l435 -94c-122,-360 -676,-307 -659,57 16,349 660,375 658,28z"/>
  </g>
 </g>
</svg>
